# xmcd
#
# Track frame offsets:
#	150
#	20428
#	36137
#	51555
#	68565
#	90340
#	104484
#	122462
#	138303
#	165162
#	181483
#	195632
#
# Disc length: 2773 seconds
#
# Revision: 0
# Processed by: cddbd v1.4b41PL3 Copyright (c) Steve Scherf et al.
# Submitted via: EZCDDA 4.3.3.2
#
DISCID=970ad30c
DTITLE=Microwave Dave and The Nukes - Wouldn't lay my guitar down
DYEAR=1900
DGENRE=
TTITLE0=Sugar Bee
TTITLE1=Hey Little Girl
TTITLE2=I Wouldn't Lay my Guitar Down
TTITLE3=Hat
TTITLE4=Soon As the Weather Breaks
TTITLE5=I Want My Rib Back
TTITLE6=Don't Care Blues
TTITLE7=King of the Blues
TTITLE8=Don't Throw My Baby Away
TTITLE9=Daynaflow Blues
TTITLE10=Sentimental Journey
TTITLE11=Stumblin' Home
EXTD=
EXTT0=
EXTT1=
EXTT2=
EXTT3=
EXTT4=
EXTT5=
EXTT6=
EXTT7=
EXTT8=
EXTT9=
EXTT10=
EXTT11=
PLAYORDER=
